<?xml version="1.0" encoding="UTF-8" standalone="no"?>
<!-- Created with Inkscape (http://www.inkscape.org/) -->

<svg
   width="255.99998"
   height="255.99998"
   viewBox="0 0 67.733328 67.733329"
   version="1.1"
   id="svg1"
   xml:space="preserve"
   xmlns="http://www.w3.org/2000/svg"
   xmlns:svg="http://www.w3.org/2000/svg"><defs
     id="defs1"><clipPath
       id="clipPath14"
       clipPathUnits="userSpaceOnUse"><path
         id="path12"
         d="M 0,7.289989 H 363.75 V 371.03998 H 0 Z" /></clipPath><clipPath
       id="clipPath36"
       clipPathUnits="userSpaceOnUse"><path
         id="path34"
         d="M 0,0 H 1515.625 V 1515.625 H 0 Z" /></clipPath><clipPath
       id="clipPath42"
       clipPathUnits="userSpaceOnUse"><path
         id="path40"
         d="M 0,0 H 1515.625 V 1515.625 H 0 Z" /></clipPath><clipPath
       id="clipPath48"
       clipPathUnits="userSpaceOnUse"><path
         id="path46"
         d="M 0,0 H 1514.292 V 1514.292 H 0 Z" /></clipPath><clipPath
       id="clipPath54"
       clipPathUnits="userSpaceOnUse"><path
         id="path52"
         d="m 312.5,0 h 889.292 c 82.8801,0 162.3657,32.924015 220.9708,91.529137 C 1481.368,150.13426 1514.292,229.61986 1514.292,312.5 v 889.292 c 0,82.8801 -32.924,162.3657 -91.5292,220.9708 -58.6051,58.6052 -138.0907,91.5292 -220.9708,91.5292 H 312.5 c -82.88014,0 -162.36574,-32.924 -220.970863,-91.5292 C 32.924015,1364.1577 0,1284.6721 0,1201.792 V 312.5 C 0,229.61986 32.924015,150.13426 91.529137,91.529137 150.13426,32.924015 229.61986,0 312.5,0 Z" /></clipPath><clipPath
       id="clipPath80"
       clipPathUnits="userSpaceOnUse"><path
         style="clip-rule:evenodd"
         id="path78"
         d="M 0,0 H 1515.625 V 1515.625 H 0 Z" /></clipPath></defs><g
     clip-path="url(#clipPath14)"
     transform="matrix(0.18637239,0,0,-0.18637239,-5.3426357e-7,69.151612)"
     id="g10"><g
       transform="matrix(0.23999999,0,0,-0.23999999,0,371.03998)"
       id="g16"><g
         id="g30"><g
           clip-path="url(#clipPath36)"
           id="g32"><g
             clip-path="url(#clipPath42)"
             id="g38"><g
               clip-path="url(#clipPath48)"
               id="g44"><g
                 clip-path="url(#clipPath54)"
                 id="g50"><g
                   transform="scale(5.9152031)"
                   id="g56"><path
                     id="path58"
                     style="fill:#cbe9a2;fill-opacity:1;fill-rule:nonzero;stroke:none"
                     d="M 0,0 H 256 V 256 H 0 Z" /></g></g></g></g></g></g><rect
         style="fill:#e6e6e6;fill-opacity:1;stroke:#1a1a1a;stroke-width:23.6607;stroke-dasharray:none"
         id="rect9"
         width="713.57434"
         height="712.71625"
         x="399.87854"
         y="402.02399" /><path
         id="path72"
         style="fill:#000000;fill-opacity:1;fill-rule:nonzero;stroke:none;stroke-width:21.4544"
         d="m 1357.3898,480.97633 c 1.5909,0.4323 3.2102,0.67796 4.8577,0.73717 1.6475,0.0601 3.2804,-0.0708 4.8982,-0.38747 1.6179,-0.31731 3.1782,-0.81462 4.6814,-1.49151 1.5031,-0.6771 2.9097,-1.51618 4.2194,-2.51755 1.3098,-1.00128 2.4884,-2.13858 3.536,-3.41151 1.0476,-1.27311 1.9367,-2.64849 2.6672,-4.12644 0.7305,-1.47799 1.2832,-3.01969 1.6582,-4.62506 0.375,-1.60543 0.5625,-3.23245 0.5628,-4.88107 -10e-5,-1.64856 -0.1867,-3.27569 -0.5628,-4.88106 -0.375,-1.60543 -0.9277,-3.14713 -1.6582,-4.62508 -0.7305,-1.478 -1.6196,-2.85346 -2.6672,-4.12648 -1.0477,-1.27311 -2.2262,-2.41021 -3.536,-3.41151 -1.3098,-1.00128 -2.7162,-1.84058 -4.2194,-2.51753 -1.5031,-0.6771 -3.0636,-1.17442 -4.6814,-1.49151 -1.6179,-0.31731 -3.2506,-0.44647 -4.8982,-0.38747 -1.6474,0.0601 -3.2668,0.30487 -4.8577,0.73718 h -121.003 V 299.90111 c 0,-1.4087 -0.1373,-2.80392 -0.4123,-4.18557 -0.2748,-1.38166 -0.6818,-2.72321 -1.221,-4.0247 -0.5391,-1.30143 -1.1999,-2.53789 -1.9826,-3.70919 -0.7826,-1.17131 -1.6719,-2.25502 -2.6681,-3.25112 -0.9962,-0.99613 -2.0798,-1.88552 -3.2512,-2.66815 -1.1712,-0.78264 -2.4077,-1.44352 -3.7092,-1.98261 -1.3016,-0.53908 -2.6431,-0.94603 -4.0246,-1.22086 -1.3817,-0.27483 -2.7769,-0.41225 -4.1855,-0.41225 H 1075.9076 V 158.08731 c 0.588,-1.62028 0.9753,-3.28721 1.1617,-5.00081 0.1867,-1.71361 0.1674,-3.42481 -0.06,-5.1336 -0.2262,-1.7088 -0.652,-3.36628 -1.2779,-4.97242 -0.6256,-1.60615 -1.4331,-3.11499 -2.4224,-4.52652 -0.9893,-1.41153 -2.1321,-2.68531 -3.4285,-3.82139 -1.2962,-1.13608 -2.709,-2.10189 -4.2381,-2.89746 -1.529,-0.79558 -3.1308,-1.3981 -4.8052,-1.80763 -1.6745,-0.4095 -3.3734,-0.61426 -5.0971,-0.61426 -1.7237,0 -3.4226,0.20468 -5.097,0.61426 -1.6743,0.40951 -3.2761,1.01205 -4.8052,1.80763 -1.5291,0.79557 -2.942,1.76138 -4.2383,2.89746 -1.2962,1.13608 -2.4391,2.40987 -3.4284,3.82139 -0.9893,1.41153 -1.7968,2.92037 -2.4224,4.52652 -0.6256,1.60614 -1.0515,3.26361 -1.2776,4.97242 -0.2262,1.7088 -0.2461,3.42 -0.06,5.1336 0.1869,1.71346 0.5741,3.3804 1.1623,5.00067 v 121.003 H 928.30121 v -121.003 c -9e-5,-1.40871 -0.13731,-2.8039 -0.41236,-4.18555 -0.27487,-1.38166 -0.6818,-2.72323 -1.22088,-4.02471 -0.53911,-1.30149 -1.19997,-2.53789 -1.98263,-3.70919 -0.78265,-1.1713 -1.67196,-2.25501 -2.66805,-3.25112 -0.99611,-0.99612 -2.07986,-1.8855 -3.25118,-2.66814 -1.17124,-0.78264 -2.40764,-1.44351 -3.70917,-1.9826 -1.30154,-0.53909 -2.6431,-0.94605 -4.02468,-1.22088 -1.38165,-0.27482 -2.77681,-0.41224 -4.18548,-0.41224 -1.4087,0 -2.80392,0.13731 -4.18565,0.41225 -1.38167,0.27481 -2.72321,0.68178 -4.02475,1.22087 -1.30142,0.53908 -2.53784,1.19994 -3.7091,1.9826 -1.1712,0.78266 -2.25508,1.67203 -3.25117,2.66814 -0.99612,0.99611 -1.88563,2.07982 -2.66813,3.25113 -0.78266,1.17131 -1.44346,2.40769 -1.98261,3.70918 -0.53915,1.30149 -0.94614,2.64306 -1.22075,4.02472 -0.27494,1.38164 -0.41236,2.77683 -0.41227,4.18554 v 121.003 H 778.1202 v -121.003 c 0,-1.40871 -0.13742,-2.8039 -0.41231,-4.18555 -0.27475,-1.38166 -0.68176,-2.72323 -1.22085,-4.02471 -0.5391,-1.30149 -1.19996,-2.53789 -1.98262,-3.70919 -0.78266,-1.1713 -1.67197,-2.25501 -2.66805,-3.25112 -0.99611,-0.99612 -2.07986,-1.8855 -3.25127,-2.66814 -1.17124,-0.78264 -2.40764,-1.44351 -3.70917,-1.9826 -1.30145,-0.53909 -2.64302,-0.94605 -4.02468,-1.22088 -1.38165,-0.27482 -2.77681,-0.41224 -4.18548,-0.41224 -1.4087,0 -2.80395,0.13731 -4.18557,0.41225 -1.38166,0.27481 -2.72325,0.68178 -4.02476,1.22087 -1.30143,0.53908 -2.53787,1.19994 -3.70917,1.9826 -1.1712,0.78266 -2.25495,1.67203 -3.2511,2.66814 -0.99613,0.99611 -1.88542,2.07982 -2.66816,3.25113 -0.78266,1.17131 -1.44345,2.40769 -1.9826,3.70918 -0.53915,1.30149 -0.94614,2.64306 -1.22098,4.02472 -0.27472,1.38164 -0.41213,2.77683 -0.41209,4.18554 v 121.003 H 627.93919 v -121.003 c 0.4323,-1.59095 0.67796,-3.2102 0.73717,-4.85778 0.0601,-1.64757 -0.0708,-3.28028 -0.38725,-4.89809 -0.31731,-1.61782 -0.81462,-3.17832 -1.49173,-4.68152 -0.6771,-1.50318 -1.51618,-2.90965 -2.5175,-4.21938 -1.00128,-1.30973 -2.13858,-2.4884 -3.41154,-3.53598 -1.2731,-1.04758 -2.6485,-1.93663 -4.12641,-2.66711 -1.478,-0.7305 -3.01969,-1.28327 -4.62515,-1.65836 -1.60543,-0.37509 -3.23243,-0.56262 -4.88101,-0.56262 -1.64856,0 -3.2757,0.18751 -4.88116,0.56262 -1.60544,0.37509 -3.14707,0.92786 -4.62502,1.65836 -1.47799,0.73048 -2.85346,1.61951 -4.12648,2.66711 -1.27311,1.04757 -2.41017,2.22624 -3.41147,3.53598 -1.00128,1.30972 -1.84057,2.71619 -2.51759,4.21938 -0.6771,1.50321 -1.1742,3.0637 -1.49151,4.68152 -0.31731,1.61781 -0.44647,3.25051 -0.38747,4.89809 0.0589,1.64758 0.30465,3.26684 0.73707,4.85778 v 121.003 H 479.25999 v -121.003 c 0.4323,-1.59095 0.67796,-3.2102 0.73717,-4.85778 0.0601,-1.64757 -0.0708,-3.28028 -0.38746,-4.89809 -0.31732,-1.61782 -0.81441,-3.17832 -1.49173,-4.68152 -0.6771,-1.50318 -1.51619,-2.90965 -2.51755,-4.21938 -1.00128,-1.30973 -2.13858,-2.4884 -3.41151,-3.53598 -1.27311,-1.04758 -2.64849,-1.93663 -4.12644,-2.66711 -1.478,-0.7305 -3.01969,-1.28327 -4.6251,-1.65836 -1.60544,-0.37509 -3.23239,-0.56262 -4.88101,-0.56262 -1.64878,0 -3.27571,0.18751 -4.88112,0.56262 -1.60544,0.37509 -3.14707,0.92786 -4.62506,1.65836 -1.478,0.73048 -2.85351,1.61951 -4.12653,2.66711 -1.2731,1.04757 -2.41017,2.22624 -3.41147,3.53598 -1.00127,1.30972 -1.84057,2.71619 -2.51759,4.21938 -0.6771,1.50321 -1.1742,3.0637 -1.49151,4.68152 -0.31731,1.61781 -0.44647,3.25051 -0.38747,4.89809 0.0601,1.64757 0.30487,3.26684 0.73718,4.85778 v 121.003 H 297.75538 c -1.4087,2e-5 -2.80392,0.13752 -4.18556,0.41224 -1.38167,0.27483 -2.72322,0.68178 -4.02468,1.22087 -1.30143,0.53908 -2.53789,1.19997 -3.7092,1.9826 -1.1713,0.78266 -2.25501,1.67203 -3.25113,2.66814 -0.99613,0.99613 -1.88551,2.07983 -2.66814,3.25113 -0.78264,1.17141 -1.44352,2.4077 -1.98261,3.70919 -0.53908,1.30143 -0.94605,2.64304 -1.22088,4.02468 -0.27483,1.38167 -0.41225,2.77685 -0.41225,4.18557 V 440.21297 H 155.94159 c -1.59096,-0.4323 -3.21021,-0.67817 -4.85779,-0.73717 -1.64757,-0.0601 -3.28028,0.0708 -4.89809,0.38747 -1.61781,0.31731 -3.17832,0.81441 -4.68152,1.49151 -1.50318,0.6771 -2.90965,1.51618 -4.21938,2.51759 -1.30975,1.00128 -2.4884,2.13836 -3.53599,3.41147 -1.04758,1.2731 -1.93663,2.64853 -2.66711,4.12652 -0.73048,1.478 -1.28327,3.0196 -1.65836,4.62502 -0.37509,1.60543 -0.56262,3.23249 -0.56262,4.88116 -1e-5,1.64856 0.18751,3.2756 0.5626,4.88101 0.37509,1.60544 0.92786,3.14713 1.65836,4.6251 0.73048,1.478 1.61953,2.85344 2.66711,4.12646 1.04758,1.27311 2.22624,2.41017 3.53598,3.41149 1.30973,1.00128 2.71619,1.84058 4.21939,2.51751 1.50318,0.6771 3.0637,1.17442 4.68152,1.49173 1.61781,0.31731 3.25051,0.44646 4.89809,0.38725 1.64757,-0.0601 3.26684,-0.30465 4.85778,-0.73696 h 121.003 v 107.27215 h -121.003 c -1.59874,-0.46642 -3.22965,-0.74275 -4.89276,-0.82921 -1.6631,-0.0858 -3.3139,0.0191 -4.95239,0.31709 -1.63849,0.29779 -3.22084,0.78009 -4.74705,1.44646 -1.52623,0.66637 -2.95546,1.49924 -4.28774,2.49839 -1.33227,0.99913 -2.53196,2.13815 -3.59902,3.4167 -1.06708,1.27847 -1.97299,2.66261 -2.71776,4.15214 -0.74477,1.48958 -1.30846,3.04469 -1.69108,4.66551 -0.38262,1.62088 -0.57393,3.2639 -0.57393,4.92926 0,1.66529 0.19138,3.30838 0.57393,4.92915 0.38262,1.62089 0.94631,3.17601 1.69108,4.66553 0.74477,1.48958 1.65068,2.87356 2.71776,4.15214 1.06706,1.27868 2.26674,2.41746 3.59902,3.4167 1.33228,0.99913 2.76153,1.83199 4.28774,2.49839 1.52621,0.66638 3.10856,1.14846 4.74706,1.44646 1.63847,0.298 3.28928,0.40356 4.95238,0.31709 1.66327,-0.0867 3.29419,-0.36315 4.89293,-0.82945 H 276.94472 V 737.35678 H 155.94173 c -1.40872,0 -2.80391,0.13731 -4.18556,0.41214 -1.38164,0.27484 -2.72322,0.68183 -4.02471,1.22098 -1.30149,0.53915 -2.53788,1.19994 -3.70919,1.9826 -1.1713,0.78266 -2.25501,1.67194 -3.25112,2.66816 -0.99611,0.99613 -1.8855,2.07979 -2.66814,3.2511 -0.78263,1.17119 -1.44352,2.40768 -1.9826,3.70917 -0.53909,1.30142 -0.94606,2.64305 -1.22089,4.02476 -0.27482,1.38158 -0.41223,2.77678 -0.41222,4.18552 -1e-5,1.4087 0.13731,2.80384 0.41222,4.18549 0.27483,1.38166 0.68178,2.72323 1.22089,4.02467 0.53908,1.30165 1.19995,2.53794 1.9826,3.70926 0.78266,1.17141 1.67203,2.25508 2.66814,3.25118 0.99611,0.99613 2.07982,1.88542 3.25113,2.66806 1.17131,0.78265 2.4077,1.44345 3.70919,1.9826 1.30149,0.53915 2.64305,0.94614 4.02471,1.22076 1.38164,0.275 2.77683,0.41241 4.18555,0.41241 H 276.94472 V 887.53779 H 155.94173 c -1.59096,-0.4323 -3.21021,-0.67795 -4.85779,-0.73717 -1.64757,-0.0579 -3.28028,0.0708 -4.89809,0.38747 -1.61781,0.31731 -3.17832,0.81441 -4.68151,1.49151 -1.50319,0.6771 -2.90966,1.5164 -4.21939,2.51763 -1.30975,1.00128 -2.4884,2.13837 -3.53599,3.41143 -1.04757,1.27311 -1.93662,2.64857 -2.6671,4.12655 -0.73048,1.47799 -1.28328,3.01966 -1.65837,4.62499 -0.37509,1.60544 -0.56262,3.23252 -0.56262,4.88114 0,1.64856 0.18751,3.27566 0.5626,4.88099 0.37509,1.60544 0.92786,3.14715 1.65836,4.62515 0.73048,1.47799 1.61953,2.85342 2.66711,4.12639 1.04758,1.27311 2.22624,2.41026 3.53598,3.4116 1.30973,1.00128 2.7162,1.84036 4.21939,2.51746 1.50318,0.6771 3.0637,1.1742 4.68152,1.49173 1.61781,0.31731 3.25051,0.44647 4.89809,0.38725 1.6476,-0.059 3.26686,-0.30469 4.85781,-0.73707 H 276.94472 V 1036.217 H 155.94173 c -1.59096,-0.4323 -3.21021,-0.6782 -4.85779,-0.7372 -1.64757,-0.06 -3.28028,0.071 -4.89809,0.3875 -1.61781,0.3173 -3.17832,0.8146 -4.68151,1.4917 -1.50319,0.6771 -2.90966,1.5162 -4.21939,2.5176 -1.30975,1.0012 -2.4884,2.1383 -3.53599,3.4114 -1.04757,1.2729 -1.93662,2.6485 -2.6671,4.1266 -0.73048,1.478 -1.28328,3.0195 -1.65837,4.6249 -0.37509,1.6055 -0.56262,3.2325 -0.56262,4.8812 0,1.6485 0.18751,3.2755 0.5626,4.8809 0.37509,1.6054 0.92786,3.1471 1.65836,4.6251 0.73048,1.478 1.61953,2.8534 2.66711,4.1264 1.04758,1.2731 2.22624,2.4103 3.53598,3.4116 1.30973,1.0011 2.7162,1.8404 4.21939,2.5175 1.50318,0.6771 3.0637,1.1742 4.68152,1.4917 1.61781,0.3173 3.25051,0.4465 4.89809,0.3873 1.6476,-0.059 3.26686,-0.3048 4.85781,-0.7371 h 121.00299 v 139.6683 c 0,1.4087 0.13731,2.8039 0.41225,4.1854 0.27483,1.3817 0.68178,2.7233 1.22086,4.0247 0.53909,1.3017 1.19997,2.538 1.9826,3.7092 0.78266,1.1714 1.67203,2.2552 2.66816,3.2512 0.99613,0.9962 2.07982,1.8855 3.25112,2.6681 1.17141,0.7827 2.4077,1.4435 3.70919,1.9826 1.30142,0.5392 2.64301,0.9462 4.02468,1.221 1.38166,0.2748 2.77684,0.4123 4.18556,0.4123 h 139.66839 v 120.7884 c -0.43231,1.5909 -0.67818,3.2102 -0.73718,4.8578 -0.0601,1.6474 0.0708,3.2803 0.38747,4.8981 0.31731,1.6179 0.81441,3.1783 1.49151,4.6815 0.6771,1.5033 1.5164,2.9098 2.51759,4.2195 1.00128,1.3098 2.13836,2.4883 3.41143,3.5359 1.2731,1.0476 2.64853,1.9367 4.12648,2.6671 1.47799,0.7305 3.0196,1.2832 4.62502,1.6582 1.60543,0.375 3.23249,0.5626 4.88116,0.5628 1.64856,-10e-5 3.2756,-0.1867 4.88101,-0.5628 1.60543,-0.375 3.14713,-0.9279 4.6251,-1.6582 1.478,-0.7305 2.85344,-1.6196 4.12646,-2.6671 1.27311,-1.0477 2.41019,-2.2262 3.41153,-3.5359 1.00128,-1.3098 1.84058,-2.7163 2.51755,-4.2195 0.67711,-1.5031 1.1742,-3.0636 1.49152,-4.6814 0.31731,-1.6179 0.44646,-3.2506 0.38746,-4.8982 -0.0601,-1.6474 -0.30487,-3.2668 -0.73717,-4.8577 v -121.003 h 107.27215 v 121.003 c -0.46621,1.5986 -0.74275,3.2295 -0.82922,4.8926 -0.0858,1.6631 0.0192,3.314 0.3171,4.9524 0.29779,1.6385 0.78008,3.2209 1.44646,4.747 0.66637,1.5263 1.49923,2.9555 2.49839,4.2878 0.99913,1.3324 2.13815,2.532 3.41666,3.5991 1.27847,1.0671 2.6626,1.9729 4.15218,2.7178 1.48937,0.7447 3.04464,1.3085 4.66548,1.691 1.62067,0.3828 3.26389,0.5741 4.92924,0.5741 1.6653,0 3.30838,-0.1909 4.92922,-0.5741 1.62089,-0.3825 3.17601,-0.9461 4.66555,-1.6908 1.48958,-0.7449 2.87352,-1.6507 4.1521,-2.7178 1.27846,-1.0672 2.41748,-2.2667 3.4167,-3.599 0.99913,-1.3324 1.83199,-2.7617 2.49839,-4.2879 0.66637,-1.5263 1.14845,-3.1085 1.44646,-4.7469 0.298,-1.6385 0.40355,-3.2894 0.31709,-4.9525 -0.0865,-1.6634 -0.36294,-3.2943 -0.82923,-4.8929 v -121.003 h 107.27215 v 121.003 c -4e-5,1.4087 0.13731,2.8038 0.41214,4.1855 0.27483,1.3817 0.68182,2.7232 1.22097,4.0247 0.53915,1.3014 1.19995,2.5378 1.9826,3.7092 0.78266,1.1712 1.67195,2.255 2.66816,3.2511 0.99613,0.9961 2.07979,1.8854 3.2511,2.668 1.1712,0.7827 2.40768,1.4435 3.70917,1.9826 1.30143,0.5392 2.64306,0.9462 4.02476,1.221 1.38167,0.2748 2.77683,0.4121 4.18557,0.4123 1.4087,0 2.80384,-0.1373 4.18548,-0.4123 1.38167,-0.2748 2.72323,-0.6818 4.02468,-1.2208 1.30164,-0.5391 2.53793,-1.1999 3.70926,-1.9826 1.17141,-0.7826 2.25507,-1.6719 3.25118,-2.668 0.99613,-0.9961 1.88542,-2.0798 2.66805,-3.2512 0.78266,-1.1714 1.44346,-2.4078 1.98261,-3.7093 0.53915,-1.3014 0.94614,-2.643 1.22075,-4.0246 0.27496,-1.3818 0.41238,-2.777 0.41238,-4.1856 v -121.003 h 107.27215 v 121.003 c -0.43231,1.5908 -0.67796,3.2101 -0.73718,4.8577 -0.0579,1.6475 0.0708,3.2803 0.38747,4.8982 0.31731,1.6178 0.81441,3.1782 1.49151,4.6814 0.6771,1.5033 1.5164,2.9098 2.5177,4.2196 1.00128,1.3097 2.13836,2.4883 3.41143,3.5359 1.2731,1.0476 2.64859,1.9367 4.12656,2.667 1.478,0.7306 3.01959,1.2832 4.625,1.6583 1.60543,0.375 3.23243,0.5625 4.88105,0.5627 1.64856,-10e-5 3.27567,-0.1866 4.88108,-0.5627 1.60544,-0.3751 3.14706,-0.9279 4.62506,-1.6583 1.478,-0.7305 2.85342,-1.6195 4.12648,-2.6671 1.27311,-1.0476 2.41017,-2.2262 3.41151,-3.5358 1.00128,-1.3098 1.84036,-2.7164 2.51747,-4.2196 0.6771,-1.5031 1.1742,-3.0636 1.49172,-4.6814 0.31731,-1.6178 0.44647,-3.2506 0.38725,-4.8981 -0.059,-1.6477 -0.30469,-3.2669 -0.73706,-4.8578 v -121.003 h 107.2721 v 121.003 c -0.4323,1.5908 -0.6781,3.2101 -0.7371,4.8577 -0.06,1.6475 0.071,3.2803 0.3874,4.8982 0.3174,1.6178 0.8145,3.1782 1.4916,4.6814 0.6771,1.5033 1.5161,2.9098 2.5176,4.2196 1.0013,1.3097 2.1384,2.4883 3.4115,3.5359 1.2729,1.0476 2.6484,1.9367 4.1264,2.667 1.478,0.7306 3.0196,1.2832 4.6251,1.6583 1.6052,0.375 3.2323,0.5625 4.881,0.5627 1.6486,-10e-5 3.2756,-0.1866 4.881,-0.5627 1.6054,-0.3751 3.1471,-0.9279 4.6251,-1.6583 1.478,-0.7305 2.8535,-1.6195 4.1265,-2.6671 1.2731,-1.0476 2.4103,-2.2262 3.4116,-3.5358 1.0011,-1.3098 1.8404,-2.7164 2.5176,-4.2196 0.6771,-1.5031 1.1742,-3.0636 1.4915,-4.6814 0.3171,-1.6178 0.4462,-3.2506 0.3872,-4.8981 -0.058,-1.6477 -0.3046,-3.2669 -0.7369,-4.8578 v -121.003 h 139.6684 c 1.4087,0 2.8038,-0.1373 4.1854,-0.4124 1.3816,-0.2748 2.7232,-0.6818 4.0246,-1.2209 1.3017,-0.5392 2.538,-1.2 3.7092,-1.9826 1.1714,-0.7827 2.2552,-1.672 3.2513,-2.6682 0.9961,-0.9961 1.8854,-2.0798 2.668,-3.2512 0.7827,-1.1712 1.4435,-2.4077 1.9826,-3.7091 0.5392,-1.3016 0.9462,-2.6431 1.221,-4.0247 0.2748,-1.3817 0.4124,-2.7768 0.4124,-4.1855 V 1078.053 h 120.7883 c 1.6205,0.5883 3.2874,0.9753 5.0011,1.1618 1.7135,0.1866 3.4247,0.1673 5.1334,-0.06 1.7089,-0.2261 3.3664,-0.652 4.9725,-1.2776 1.606,-0.6256 3.1149,-1.4332 4.5263,-2.4226 1.4115,-0.9893 2.6854,-2.1319 3.8215,-3.4283 1.1362,-1.2963 2.1019,-2.7091 2.8975,-4.2382 0.7955,-1.5291 1.3982,-3.1308 1.8075,-4.8051 0.4096,-1.6743 0.6143,-3.3735 0.6143,-5.0972 10e-5,-1.7237 -0.2038,-3.4227 -0.6143,-5.097 -0.4095,-1.6743 -1.012,-3.2761 -1.8075,-4.8052 -0.7955,-1.5291 -1.7614,-2.9418 -2.8975,-4.2381 -1.136,-1.2963 -2.41,-2.4392 -3.8215,-3.4286 -1.4115,-0.9893 -2.9202,-1.7966 -4.5263,-2.4224 -1.606,-0.6256 -3.2636,-1.0515 -4.9725,-1.2776 -1.7088,-0.2261 -3.42,-0.2461 -5.1335,-0.06 -1.7136,0.187 -3.3806,0.5741 -5.001,1.1621 h -121.003 V 930.44665 h 121.003 c 1.4087,-8e-5 2.8038,-0.1373 4.1856,-0.41235 1.3816,-0.27483 2.7231,-0.68182 4.0247,-1.22097 1.3014,-0.53915 2.5378,-1.19995 3.7091,-1.9826 1.1712,-0.78266 2.255,-1.67195 3.2511,-2.66806 0.9962,-0.99613 1.8854,-2.07979 2.6681,-3.25118 0.7826,-1.1712 1.4434,-2.40764 1.9826,-3.70917 0.5391,-1.30164 0.9461,-2.6431 1.2209,-4.02468 0.2748,-1.38158 0.4123,-2.77674 0.4123,-4.18542 0,-1.40869 -0.1373,-2.80392 -0.4123,-4.18565 -0.2748,-1.38166 -0.6818,-2.72321 -1.2208,-4.02474 -0.5391,-1.30143 -1.1999,-2.53785 -1.9826,-3.70911 -0.7826,-1.17119 -1.6719,-2.25507 -2.668,-3.25116 -0.9962,-0.99613 -2.0798,-1.88541 -3.2512,-2.66814 -1.1714,-0.78265 -2.4078,-1.44345 -3.7093,-1.9826 -1.3014,-0.53915 -2.643,-0.94593 -4.0246,-1.22076 -1.3818,-0.27485 -2.7769,-0.41227 -4.1856,-0.41227 h -121.003 V 780.26564 h 121.003 c 1.4087,0 2.8038,-0.1373 4.1856,-0.41235 1.3816,-0.27483 2.7231,-0.68182 4.0247,-1.22076 1.3014,-0.53915 2.5378,-1.19994 3.7091,-1.9826 1.1712,-0.78266 2.255,-1.67194 3.2511,-2.66805 0.9962,-0.99613 1.8854,-2.07979 2.6681,-3.25127 0.7826,-1.1712 1.4434,-2.40764 1.9826,-3.70917 0.5391,-1.30143 0.9461,-2.64301 1.2209,-4.02468 0.2748,-1.38171 0.4123,-2.77687 0.4123,-4.18555 0,-1.40869 -0.1373,-2.80394 -0.4123,-4.18556 -0.2748,-1.38167 -0.6818,-2.72325 -1.2208,-4.02477 -0.5391,-1.30142 -1.1999,-2.53786 -1.9826,-3.70917 -0.7826,-1.17119 -1.6719,-2.25494 -2.668,-3.25109 -0.9962,-0.99613 -2.0798,-1.88542 -3.2512,-2.66816 -1.1714,-0.78266 -2.4078,-1.44346 -3.7093,-1.98261 -1.3014,-0.53915 -2.643,-0.94614 -4.0246,-1.22075 -1.3818,-0.2749 -2.7769,-0.41232 -4.1856,-0.41232 h -121.003 V 630.08463 h 121.003 c 1.5909,0.43231 3.2102,0.67796 4.8577,0.73718 1.6475,0.0601 3.2804,-0.0708 4.8982,-0.38725 1.6179,-0.31731 3.1782,-0.81463 4.6814,-1.49152 1.5031,-0.6771 2.9097,-1.51618 4.2194,-2.51759 1.3098,-1.00128 2.4884,-2.13857 3.536,-3.41157 1.0476,-1.27311 1.9367,-2.64851 2.6672,-4.12644 0.7305,-1.478 1.2832,-3.01969 1.6582,-4.62508 0.375,-1.60544 0.5625,-3.23243 0.5628,-4.88101 -10e-5,-1.64856 -0.1867,-3.27571 -0.5628,-4.88112 -0.375,-1.60544 -0.9277,-3.14707 -1.6582,-4.62498 -0.7305,-1.47799 -1.6196,-2.85354 -2.6672,-4.12656 -1.0477,-1.27311 -2.2262,-2.41017 -3.536,-3.41147 -1.3098,-1.00128 -2.7162,-1.84058 -4.2194,-2.51755 -1.5031,-0.6771 -3.0636,-1.1742 -4.6814,-1.49151 -1.6179,-0.31731 -3.2506,-0.44647 -4.8982,-0.38747 -1.6475,0.0588 -3.2668,0.30452 -4.8577,0.7369 h -121.003 V 481.40544 l 121.003,-0.42909 z M 1194.7652,1196.9106 H 318.56631 V 320.71175 h 876.19889 z" /><g
         clip-path="url(#clipPath80)"
         id="g76"
         transform="translate(-23.147271,5.018359)"><g
           transform="matrix(3.125,0,0,3.125,592.55024,411.59571)"
           id="g82"><path
   style="font-size:153.46px;font-family:Quicksand;-inkscape-font-specification:Quicksand"
   d="m 44.043022,1.5346001 q -11.662961,0.15346 -20.256721,-3.6830402 -8.59376,-3.8365002 -16.4202207,-11.5095009 -0.7673,-0.61384 -1.38114,-1.5346 -0.4603801,-0.92076 -0.4603801,-2.14844 0,-1.84152 1.3811401,-3.37612 1.5346001,-1.5346 3.3761197,-1.5346 1.841521,0 3.376121,1.5346 5.98494,6.44532 13.50448,9.821441 7.673001,3.3761197 16.420221,3.3761197 7.36608,0 13.0441,-2.3019001 5.831481,-2.3019006 9.207601,-6.5987806 3.37612,-4.29688 3.37612,-9.9749 0,-7.05916 -3.8365,-11.356041 -3.8365,-4.45034 -10.128361,-7.21262 -6.29186,-2.91574 -13.96486,-5.21764 -6.29186,-1.84152 -11.969881,-4.14342 -5.67802,-2.45536 -10.12836,-5.831481 -4.45034,-3.52958 -6.9057,-8.59376 -2.4553606,-5.06418 -2.4553606,-12.276801 0,-8.13338 4.2968806,-14.42524 4.29688,-6.291856 12.12334,-9.821436 7.97992,-3.68304 18.415201,-3.68304 9.05414,0 17.340981,3.0692 8.4403,3.0692 13.35102,9.054136 2.3019,2.45536 2.3019,4.45034 0,1.5346 -1.5346,3.0692 -1.5346,1.5346 -3.37612,1.5346 -1.5346,0 -2.60882,-1.07422 -2.60882,-3.22266 -6.59878,-5.67802 -3.98996,-2.60882 -8.900681,-3.98996 -4.75726,-1.38114 -9.9749,-1.38114 -7.21262,0 -13.044101,2.3019 -5.67802,2.14844 -9.05414,6.29186 -3.22266,4.14342 -3.22266,9.9749 0,6.445321 3.68304,10.588741 3.68304,4.14342 9.66798,6.9057 5.984941,2.60882 12.737181,4.91072 6.59878,1.841521 12.583721,4.296881 6.1384,2.3019 10.7422,5.83148 4.75726,3.52958 7.36608,8.90068 2.76228,5.3711 2.76228,13.504481 0,7.82646 -4.45034,14.11832 -4.45034,6.2918607 -12.2768,9.9749009 -7.673001,3.6830402 -18.108281,3.8365002 z m 68.592508,-6.1384003 q 0,1.8415201 -1.38114,3.2226601 Q 109.87325,0 108.03173,0 q -1.99498,0 -3.37612,-1.3811401 -1.22768,-1.38114 -1.22768,-3.2226601 V -75.195403 q 0,-1.84152 1.22768,-3.22266 1.38114,-1.38114 3.37612,-1.38114 1.99498,0 3.22266,1.38114 1.38114,1.38114 1.38114,3.22266 z m -4.6038,-85.4772238 q -3.22266,0 -4.91072,-1.38114 -1.5346,-1.5346 -1.5346,-4.29688 v -1.5346 q 0,-2.762276 1.68806,-4.143416 1.84152,-1.5346 4.91072,-1.5346 2.91574,0 4.45034,1.5346 1.68806,1.38114 1.68806,4.143416 v 1.5346 q 0,2.76228 -1.68806,4.29688 -1.5346,1.38114 -4.6038,1.38114 z"
   id="text86"
   transform="translate(0,163)"
   aria-label="Si" />
</g></g><path
         d="m 474.52075,557.7641 q -2.15411,0 -3.64542,-1.49131 -1.49131,-1.49131 -1.49131,-3.47972 v -99.75201 l 1.82271,1.65701 -22.53534,13.42179 q -0.9942,0.6628 -2.31981,0.6628 -2.31981,0 -3.81112,-1.65701 -1.49131,-1.82271 -1.49131,-3.64542 0,-2.48552 2.65121,-4.14253 l 28.00347,-16.9015 q 1.65701,-0.99421 3.97683,-0.6628 1.82271,0.1657 2.98262,1.65701 1.3256,1.3256 1.3256,3.31402 v 106.04864 q 0,1.98841 -1.65701,3.47972 -1.49131,1.49131 -3.81112,1.49131 z m 85.00464,0 q -2.15411,0 -3.47972,-1.49131 -1.32561,-1.49131 -1.32561,-3.47972 v -97.26649 l 2.15412,1.32561 -43.57937,57.66395 -0.4971,-1.82271 h 62.96638 q 1.98841,0 3.31402,1.3256 1.49131,1.32561 1.49131,3.31402 0,1.98842 -1.49131,3.31402 -1.32561,1.32561 -3.31402,1.32561 h -69.76012 q -1.98841,0 -3.47972,-1.49131 -1.49131,-1.65701 -1.49131,-3.64542 0,-1.82271 1.15991,-3.31402 l 53.35572,-69.76012 q 0.8285,-1.15991 1.98841,-1.49131 1.32561,-0.4971 2.15411,-0.4971 2.15412,0 3.47973,1.49131 1.4913,1.4913 1.4913,3.47972 v 106.04864 q 0,1.98841 -1.4913,3.47972 -1.49131,1.49131 -3.64543,1.49131 z"
         id="text1"
         style="font-size:165.701px;font-family:Quicksand;-inkscape-font-specification:Quicksand;stroke-width:20.7126"
         aria-label="14" /></g><path
       id="path88"
       style="fill:#000000;fill-opacity:0;fill-rule:nonzero;stroke:none"
       d="M 30.732235,38.342155 H 332.69783 V 340.30775 H 30.732235 Z" /></g></svg>
