<svg width="100" height="100" viewBox="0 0 100 100" fill="none" xmlns="http://www.w3.org/2000/svg">
<g clip-path="url(#clip0_15_21)">
<path d="M1.5 31.1152V68.8838L98.5 97.9834V2.01562L1.5 31.1152Z" fill="#D8FFFF" stroke="black" stroke-width="3"/>
<path d="M14.4034 57.4192C15.1338 57.6565 15.7386 58.0044 16.2177 58.4629C16.6968 58.9214 17.0483 59.4618 17.2723 60.0841C17.5097 60.6996 17.6193 61.3633 17.6011 62.0752C17.5963 62.7802 17.4753 63.498 17.238 64.2284C16.9182 65.2124 16.449 66.0525 15.8303 66.7487C15.2148 67.4348 14.4898 67.9058 13.6551 68.1617C12.8307 68.421 11.9264 68.3907 10.9424 68.071L7.30557 66.8893C7.04181 66.8036 6.84665 66.6449 6.72008 66.4131C6.60695 66.1745 6.59324 65.9233 6.67894 65.6595L9.53673 56.8641C9.62243 56.6004 9.77953 56.4103 10.008 56.2938C10.25 56.1706 10.5028 56.1518 10.7666 56.2375L14.4034 57.4192ZM11.3588 66.2716C11.9979 66.4793 12.5731 66.4867 13.0844 66.2939C13.5989 66.091 14.0349 65.7504 14.3922 65.2721C14.7629 64.7869 15.0521 64.2247 15.2598 63.5856C15.4147 63.1088 15.5056 62.6393 15.5324 62.1769C15.5727 61.7077 15.534 61.2746 15.4163 60.8774C15.3019 60.4702 15.1036 60.1141 14.8213 59.8093C14.539 59.5045 14.1594 59.2746 13.6826 59.1197L11.0197 58.2544L11.2164 58.1669L8.79366 65.6232L8.75674 65.4261L11.3588 66.2716ZM23.538 62.9948C24.1163 63.1827 24.5986 63.4067 24.9852 63.6669C25.3818 63.9304 25.6606 64.2116 25.8214 64.5106C25.9956 64.8027 26.0333 65.101 25.9344 65.4053C25.8685 65.6082 25.745 65.7812 25.5639 65.9242C25.3862 66.0571 25.1806 66.0857 24.9473 66.0099C24.785 65.9571 24.6546 65.8923 24.5562 65.8155C24.4712 65.7318 24.3997 65.6413 24.3416 65.5439C24.2835 65.4465 24.2086 65.3493 24.1168 65.2521C24.0351 65.1583 23.8927 65.0616 23.6896 64.9619C23.4999 64.8554 23.3543 64.7857 23.2528 64.7527C22.7355 64.5846 22.2579 64.5528 21.8202 64.6573C21.3926 64.7652 21.0198 64.9805 20.7018 65.3034C20.3871 65.6161 20.149 66.021 19.9875 66.5181C19.8293 67.005 19.7839 67.4726 19.8514 67.9207C19.9323 68.362 20.109 68.7502 20.3814 69.0855C20.6639 69.424 21.0335 69.6675 21.49 69.8158C21.7436 69.8982 21.9666 69.9538 22.1591 69.9827C22.3516 70.0116 22.5186 70.0154 22.6601 69.9941C22.8285 69.9591 22.9834 69.9141 23.1246 69.859C23.2659 69.804 23.4481 69.8127 23.6713 69.8852C23.935 69.9709 24.1099 70.1231 24.1959 70.3417C24.2852 70.5502 24.2903 70.7761 24.2112 71.0196C24.1288 71.2732 23.9109 71.4604 23.5577 71.5811C23.2077 71.6917 22.7779 71.7372 22.2684 71.7174C21.7724 71.6908 21.2555 71.5902 20.7179 71.4155C19.9164 71.1551 19.2809 70.7467 18.8111 70.1903C18.3447 69.6238 18.053 68.9682 17.936 68.2236C17.8292 67.4823 17.9044 66.716 18.1615 65.9248C18.4317 65.0929 18.8365 64.4169 19.3756 63.8967C19.9282 63.3697 20.5614 63.0258 21.2753 62.8653C22.0026 62.6978 22.7569 62.741 23.538 62.9948ZM35.4512 63.5851C35.7149 63.6708 35.905 63.8279 36.0215 64.0564C36.1379 64.2849 36.1516 64.5361 36.0626 64.81L33.007 74.214C32.9213 74.4778 32.7626 74.6729 32.5308 74.7995C32.3023 74.9159 32.0562 74.9313 31.7924 74.8456C31.5287 74.7599 31.3386 74.6028 31.2221 74.3743C31.109 74.1357 31.0953 73.8845 31.181 73.6207L31.4233 72.8751L31.7136 73.1208C31.6707 73.2527 31.547 73.3919 31.3423 73.5385C31.1409 73.675 30.8889 73.7949 30.5861 73.8984C30.2833 74.0019 29.943 74.0652 29.5654 74.0883C29.2012 74.1046 28.8264 74.0501 28.4409 73.9248C27.7409 73.6974 27.1646 73.3139 26.7118 72.7742C26.2624 72.2244 25.9725 71.5807 25.8421 70.8429C25.7251 70.0983 25.8001 69.3152 26.0671 68.4935C26.3374 67.6616 26.737 66.9839 27.266 66.4605C27.8085 65.9301 28.4163 65.5781 29.0897 65.4043C29.7663 65.2204 30.4444 65.2388 31.1241 65.4597C31.5603 65.6014 31.9396 65.7976 32.262 66.0481C32.5843 66.2986 32.8444 66.5682 33.0423 66.8568C33.2502 67.1487 33.3906 67.4242 33.4634 67.6834C33.5497 67.9358 33.5697 68.1329 33.5236 68.275L32.9115 68.2948L34.2366 64.2167C34.3223 63.9529 34.4794 63.7628 34.7079 63.6464C34.9397 63.5198 35.1874 63.4994 35.4512 63.5851ZM29.213 72.3252C29.6594 72.4702 30.0862 72.4855 30.4935 72.3711C30.9008 72.2567 31.2584 72.0364 31.5662 71.7102C31.8842 71.3874 32.1207 70.9875 32.2756 70.5107C32.4338 70.0238 32.4792 69.5563 32.4117 69.1081C32.3544 68.6633 32.1946 68.2749 31.9323 67.943C31.67 67.611 31.3157 67.3725 30.8694 67.2275C30.4331 67.0858 30.0114 67.0721 29.6041 67.1865C29.1968 67.3009 28.8342 67.5195 28.5162 67.8424C28.2083 68.1686 27.9753 68.5751 27.8171 69.0621C27.6621 69.5389 27.6134 69.9997 27.6707 70.4445C27.7382 70.8926 27.9031 71.2827 28.1653 71.6146C28.4276 71.9466 28.7768 72.1834 29.213 72.3252Z" fill="black"/>
</g>
<defs>
<clipPath id="clip0_15_21">
<rect width="100" height="100" fill="white"/>
</clipPath>
</defs>
</svg>
