<?xml version="1.0" encoding="UTF-8" standalone="no"?>
<svg
   version="1.1"
   id="svg3"
   xmlns="http://www.w3.org/2000/svg"
   xmlns:svg="http://www.w3.org/2000/svg">
  <defs
     id="defs3" />
  <path
     fill-rule="evenodd"
     d="m 24.09375,5 2,2.4375 c 0,0 5.65625,7.000049 5.65625,17.5625 0,10.562451 -5.65625,17.5625 -5.65625,17.5625 l -2,2.4375 H 41.25 c 2.408076,10e-7 7.689699,0.02451 13.625,-2.40625 5.935301,-2.430764 12.536536,-7.343266 17.6875,-16.875 L 71.25,25 72.5625,24.28125 C 62.259387,5.21559 46.006574,5 41.25,5 Z m 5.875,3 H 41.25 C 45.934173,8 59.53685,7.869793 69.21875,25 64.451964,33.429075 58.697469,37.68391 53.5,39.8125 48.139339,42.007924 43.658075,42.000001 41.25,42 H 30 c 1.873588,-3.108434 4.75,-9.04935 4.75,-17 0,-7.973354 -2.908531,-13.900185 -4.78125,-17 z"
     id="path2" />
  <path
     d="m 79,25 a 4,4 0 1 1 -8,0 4,4 0 1 1 8,0 z"
     style="marker:none"
     id="path3" />
</svg>
