<?xml version="1.0" encoding="UTF-8" standalone="no"?>
<!-- Created with Inkscape (http://www.inkscape.org/) -->

<svg
   width="60"
   height="40"
   viewBox="0 0 15.874999 10.583333"
   version="1.1"
   id="svg1"
   xml:space="preserve"
   sodipodi:docname="OR_ANSI.svg"
   xmlns:inkscape="http://www.inkscape.org/namespaces/inkscape"
   xmlns:sodipodi="http://sodipodi.sourceforge.net/DTD/sodipodi-0.dtd"
   xmlns="http://www.w3.org/2000/svg"
   xmlns:svg="http://www.w3.org/2000/svg"><sodipodi:namedview
     id="namedview1"
     pagecolor="#ffffff"
     bordercolor="#000000"
     borderopacity="0.25"
     inkscape:showpageshadow="2"
     inkscape:pageopacity="0.0"
     inkscape:pagecheckerboard="0"
     inkscape:deskcolor="#d1d1d1"><inkscape:page
       x="0"
       y="0"
       width="15.874999"
       height="10.583333"
       id="page2"
       margin="0"
       bleed="0" /></sodipodi:namedview><defs
     id="defs1" /><g
     id="layer1"><g
       id="g1"
       transform="matrix(0.26381235,0,0,0.26381235,-6.2538288,-1.223731)"><path
         d="m 23.708268,4.6470869 2.47,2.44 c 0,0 6.98,7.0200001 6.98,17.6100001 0,10.59 -6.98,17.61 -6.98,17.61 l -2.47,2.440001 h 21.18 c 2.97,0 9.49,0.02009 16.819998,-2.410001 7.330002,-2.43 15.810003,-7.98 22.170001,-17.54 -1.22,-1.75 -10.979998,-20.1500001 -38.989999,-20.1500001 z m 7.25,3.01 h 13.93 c 5.78,0 22.579998,-0.13 34.529999,17.0500001 -5.890001,8.45 -12.989998,12.72 -19.41,14.86 -6.619999,2.2 -12.149999,2.19 -15.119999,2.19 h -13.89 c 2.31,-3.12 5.87,-11.04 5.86,-17.05 0,-6.02 -3.59,-13.94 -5.9,-17.0500001 z"
         id="path3"
         style="fill-rule:evenodd;stroke-width:1.11278" /><path
         style="fill:#d8ffff;fill-opacity:1;stroke:none;stroke-width:0.13576;stroke-dasharray:none"
         d="m 7.9780192,36.075137 c 1.3318567,-2.0402 3.0531628,-5.901995 3.9521018,-8.866645 1.573556,-5.189499 1.606322,-8.879922 0.12379,-13.942394 C 11.16605,10.234276 9.466313,6.3482196 8.0451859,4.101072 L 7.4191507,3.1111581 h 8.7006113 c 8.87429,0 10.302673,0.050121 13.118199,0.4603047 7.231934,1.0535947 13.893006,4.037271 19.182972,8.5925762 2.144483,1.846661 5.083206,5.06294 6.594194,7.217001 l 0.456379,0.650614 -0.833351,1.112154 c -6.497856,8.671764 -15.113491,13.794008 -25.789234,15.33244 -2.726841,0.392953 -4.624347,0.459413 -13.14943,0.460565 l -8.2847099,0.0011 z"
         id="path24"
         transform="matrix(1.0029224,0,0,1.0029224,23.705595,4.6386418)" /></g></g></svg>
