<?xml version="1.0" encoding="UTF-8" standalone="no"?>
<svg
   version="1.1"
   id="svg3"
   xmlns="http://www.w3.org/2000/svg"
   xmlns:svg="http://www.w3.org/2000/svg">
  <defs
     id="defs3" />
  <g
     fill-rule="evenodd"
     id="g3">
    <path
       d="m 24.09375,5 2,2.4375 c 0,0 5.65625,7.00005 5.65625,17.5625 0,10.56245 -5.65625,17.5625 -5.65625,17.5625 l -2,2.4375 H 41.25 c 2.40808,0 7.6897,0.02451 13.625,-2.40625 C 60.8103,40.16299 67.680598,34.622677 72.831558,25.090947 71.845011,23.343756 63.940475,5 41.25,5 Z m 5.875,3 H 41.25 C 45.93417,8 59.53685,7.8698 69.21875,25 64.45196,33.42907 58.69747,37.68391 53.5,39.8125 48.13934,42.00792 43.65808,42 41.25,42 H 30 c 1.87359,-3.10843 4.75,-9.04935 4.75,-17 0,-7.97335 -2.90853,-13.90019 -4.78125,-17 z"
       id="path3" />
  </g>
</svg>
