<?xml version="1.0" encoding="UTF-8" standalone="no"?>
<!-- Created with Inkscape (http://www.inkscape.org/) -->

<svg
   width="60"
   height="40"
   viewBox="0 0 15.874999 10.583333"
   version="1.1"
   id="svg1"
   xml:space="preserve"
   sodipodi:docname="XOR_ANSI.svg"
   xmlns:inkscape="http://www.inkscape.org/namespaces/inkscape"
   xmlns:sodipodi="http://sodipodi.sourceforge.net/DTD/sodipodi-0.dtd"
   xmlns="http://www.w3.org/2000/svg"
   xmlns:svg="http://www.w3.org/2000/svg"><sodipodi:namedview
     id="namedview1"
     pagecolor="#ffffff"
     bordercolor="#000000"
     borderopacity="0.25"
     inkscape:showpageshadow="2"
     inkscape:pageopacity="0.0"
     inkscape:pagecheckerboard="0"
     inkscape:deskcolor="#d1d1d1"><inkscape:page
       x="0"
       y="0"
       width="15.874999"
       height="10.583333"
       id="page2"
       margin="0"
       bleed="0" /></sodipodi:namedview><defs
     id="defs1" /><g
     id="layer1"><g
       id="g1"
       transform="matrix(0.26381235,0,0,0.26381235,-6.2538288,-1.223731)"><g
         fill-rule="evenodd"
         id="g3"
         transform="matrix(1.1065704,0,0,1.0029224,3.2876935,-0.37597455)"><path
           d="M 24.25,42 C 22.65,44.64 22,45 22,45 h -3.66 l 2,-2.44 c 0,0 5.66,-7 5.66,-17.56 C 26,14.44 20.34,7.44 20.34,7.44 L 18.34,5 H 22 c 0.78,0.94 1.42,1.66 2.22,3 1.87,3.1 4.78,9.03 4.78,17 0,7.95 -2.9,13.88 -4.75,17 z"
           id="path2" /><path
           style="fill:#d8ffff;fill-opacity:1;stroke:none;stroke-width:0.338114;stroke-dasharray:none"
           d="m 29.285582,42.675491 c 0,-0.04186 0.284523,-0.585998 0.625951,-1.224317 2.095988,-3.829915 3.404794,-8.005151 4.002293,-12.755921 0.20865,-1.621959 0.170714,-6.090194 -0.0569,-7.816795 -0.588015,-4.478699 -1.887338,-8.507436 -3.954873,-12.3059587 -0.350912,-0.6487835 -0.663887,-1.2347815 -0.69234,-1.2871028 -0.02845,-0.062786 3.177176,-0.07325 7.501929,-0.041857 5.974987,0.052321 7.871808,0.1046426 9.104742,0.2616063 7.501928,0.9313183 13.62866,4.1752362 18.892339,10.0038232 1.536426,1.695209 3.243565,4.007808 4.495467,6.069265 l 0.863054,1.412674 -0.388849,0.669712 c -1.726107,2.982312 -4.467014,6.508764 -6.733715,8.6644 -4.154039,3.934558 -8.715894,6.393657 -14.131319,7.628438 -2.959041,0.669712 -3.18666,0.690641 -11.655966,0.742962 -4.324753,0.03139 -7.862325,0.02093 -7.862325,-0.02093 z"
           id="path7" /><path
           d="m 24.09,5 2,2.44 c 0,0 5.66,7 5.66,17.56 0,10.56 -5.66,17.56 -5.66,17.56 l -2,2.44 h 17.16 c 2.41,0 7.69,0.02 13.62,-2.41 5.94,-2.43 12.81,-7.97 17.96,-17.5 C 71.85,23.34 63.94,5 41.25,5 Z m 5.88,3 H 41.25 C 45.93,8 59.54,7.87 69.22,25 64.45,33.43 58.7,37.68 53.5,39.81 48.14,42.01 43.66,42 41.25,42 H 30 c 1.87,-3.11 4.75,-9.05 4.75,-17 0,-7.97 -2.91,-13.9 -4.78,-17 z"
           id="path3" /></g></g></g></svg>
